GRF
version=1
nRows=16
nColumns=28
inDegrees=no
endheader
time	plate1_ground_force_vx	plate1_ground_force_vy	plate1_ground_force_vz	plate1_ground_force_px	plate1_ground_force_py	plate1_ground_force_pz	plate1_ground_torque_x	plate1_ground_torque_y	plate1_ground_torque_z	plate2_ground_force_vx	plate2_ground_force_vy	plate2_ground_force_vz	plate2_ground_force_px	plate2_ground_force_py	plate2_ground_force_pz	plate2_ground_torque_x	plate2_ground_torque_y	plate2_ground_torque_z	plate3_ground_force_vx	plate3_ground_force_vy	plate3_ground_force_vz	plate3_ground_force_px	plate3_ground_force_py	plate3_ground_force_pz	plate3_ground_torque_x	plate3_ground_torque_y	plate3_ground_torque_z
      2.28000000	      0.00000000	      0.00000000	      0.00000000	      0.00000000	      0.00000000	      0.00000000	      0.00000000	      0.00000000	      0.00000000	      0.00000000	      0.00000000	      0.00000000	      0.00000000	      0.00000000	      0.00000000	      0.00000000	      0.00000000	      0.00000000	     74.74749952	    478.67560047	     -0.81084306	      1.76938669	      0.00000000	      0.20642984	     -0.00000000	     -0.90574191	     -0.00000000
      2.29000000	      0.00000000	      0.00000000	      0.00000000	      0.00000000	      0.00000000	      0.00000000	      0.00000000	      0.00000000	      0.00000000	      0.00000000	      0.00000000	      0.00000000	      0.00000000	      0.00000000	      0.00000000	      0.00000000	      0.00000000	      0.00000000	     81.44521950	    481.17067246	     -0.52964286	      1.76993501	      0.00000000	      0.20677221	     -0.00000000	     -0.92885068	     -0.00000000
      2.30000000	      0.00000000	      0.00000000	      0.00000000	      0.00000000	      0.00000000	      0.00000000	      0.00000000	      0.00000000	      0.00000000	      0.00000000	      0.00000000	      0.00000000	      0.00000000	      0.00000000	      0.00000000	      0.00000000	      0.00000000	      0.00000000	     88.30278443	    483.20897969	     -0.11737650	      1.77049132	      0.00000000	      0.20709476	     -0.00000000	     -0.93274096	     -0.00000000
      2.31000000	      0.00000000	      0.00000000	      0.00000000	      0.00000000	      0.00000000	      0.00000000	      0.00000000	      0.00000000	      0.00000000	      0.00000000	      0.00000000	      0.00000000	      0.00000000	      0.00000000	      0.00000000	      0.00000000	      0.00000000	      0.00000000	     95.20827248	    484.41558216	      0.36575018	      1.77102810	      0.00000000	      0.20739928	      0.00000000	     -0.91656311	     -0.00000000
      2.32000000	      0.00000000	      0.00000000	      0.00000000	      0.00000000	      0.00000000	      0.00000000	      0.00000000	      0.00000000	      0.00000000	      0.00000000	      0.00000000	      0.00000000	      0.00000000	      0.00000000	      0.00000000	      0.00000000	      0.00000000	      0.00000000	    102.01120336	    484.34490220	      0.82224596	      1.77152853	      0.00000000	      0.20769077	      0.00000000	     -0.88206658	     -0.00000000
      2.33000000	      0.00000000	      0.00000000	      0.00000000	      0.00000000	      0.00000000	      0.00000000	      0.00000000	      0.00000000	      0.00000000	      0.00000000	      0.00000000	      0.00000000	      0.00000000	      0.00000000	      0.00000000	      0.00000000	      0.00000000	      0.00000000	    108.52028284	    482.48239563	      1.13358270	      1.77199377	      0.00000000	      0.20797474	      0.00000000	     -0.83312053	     -0.00000000
      2.34000000	      0.00000000	      0.00000000	      0.00000000	      0.00000000	      0.00000000	      0.00000000	      0.00000000	      0.00000000	      0.00000000	      0.00000000	      0.00000000	      0.00000000	      0.00000000	      0.00000000	      0.00000000	      0.00000000	      0.00000000	      0.00000000	    114.49853968	    478.26295909	      1.18441033	      1.77244089	      0.00000000	      0.20825532	      0.00000000	     -0.77451935	     -0.00000000
      2.35000000	      0.00000000	      0.00000000	      0.00000000	      0.00000000	      0.00000000	      0.00000000	      0.00000000	      0.00000000	      0.00000000	      0.00000000	      0.00000000	      0.00000000	      0.00000000	      0.00000000	      0.00000000	      0.00000000	      0.00000000	      0.00000000	    119.65896659	    471.09818553	      0.88910573	      1.77289376	      0.00000000	      0.20853501	      0.00000000	     -0.71061632	     -0.00000000
      2.36000000	      0.00000000	      0.00000000	      0.00000000	      0.00000000	      0.00000000	      0.00000000	      0.00000000	      0.00000000	      0.00000000	      0.00000000	      0.00000000	      0.00000000	      0.00000000	      0.00000000	      0.00000000	      0.00000000	      0.00000000	      0.00000000	    123.66451483	    460.40028485	      0.21498747	      1.77337363	      0.00000000	      0.20881509	      0.00000000	     -0.64437780	     -0.00000000
      2.37000000	      0.00000000	      0.00000000	      0.00000000	      0.00000000	      0.00000000	      0.00000000	      0.00000000	      0.00000000	      0.00000000	      0.00000000	      0.00000000	      0.00000000	      0.00000000	      0.00000000	      0.00000000	      0.00000000	      0.00000000	      0.00000000	    126.13663289	    445.59848878	     -0.80261657	      1.77389606	      0.00000000	      0.20909500	      0.00000000	     -0.57713314	     -0.00000000
      2.38000000	      0.00000000	      0.00000000	      0.00000000	      0.00000000	      0.00000000	      0.00000000	      0.00000000	      0.00000000	      0.00000000	      0.00000000	      0.00000000	      0.00000000	      0.00000000	      0.00000000	      0.00000000	      0.00000000	      0.00000000	      0.00000000	    126.67675073	    426.15985508	     -2.05750108	      1.77447785	      0.00000000	      0.20936839	      0.00000000	     -0.50888879	     -0.00000000
      2.39000000	      0.00000000	      0.00000000	      0.00000000	      0.00000000	      0.00000000	      0.00000000	      0.00000000	      0.00000000	      0.00000000	      0.00000000	      0.00000000	      0.00000000	      0.00000000	      0.00000000	      0.00000000	      0.00000000	      0.00000000	      0.00000000	    124.90470412	    401.63923362	     -3.38507866	      1.77515218	      0.00000000	      0.20961545	      0.00000000	     -0.43890198	     -0.00000000
      2.40000000	      0.00000000	      0.00000000	      0.00000000	      0.00000000	      0.00000000	      0.00000000	      0.00000000	      0.00000000	      0.00000000	      0.00000000	      0.00000000	      0.00000000	      0.00000000	      0.00000000	      0.00000000	      0.00000000	      0.00000000	      0.00000000	    120.51599417	    371.78104390	     -4.59097604	      1.77598529	      0.00000000	      0.20979356	      0.00000000	     -0.36631991	     -0.00000000
      2.41000000	      0.00000000	      0.00000000	      0.00000000	      0.00000000	      0.00000000	      0.00000000	      0.00000000	      0.00000000	      0.00000000	      0.00000000	      0.00000000	      0.00000000	      0.00000000	      0.00000000	      0.00000000	      0.00000000	      0.00000000	      0.00000000	    113.35487491	    336.67356631	     -5.49155487	      1.77708395	      0.00000000	      0.20983145	      0.00000000	     -0.29084121	     -0.00000000
      2.42000000	      0.00000000	      0.00000000	      0.00000000	      0.00000000	      0.00000000	      0.00000000	      0.00000000	      0.00000000	      0.00000000	      0.00000000	      0.00000000	      0.00000000	      0.00000000	      0.00000000	      0.00000000	      0.00000000	      0.00000000	      0.00000000	    103.49220170	    296.92079613	     -5.95618791	      1.77858364	      0.00000000	      0.20963306	      0.00000000	     -0.21331793	     -0.00000000
      2.43000000	      0.00000000	      0.00000000	      0.00000000	      0.00000000	      0.00000000	      0.00000000	      0.00000000	      0.00000000	      0.00000000	      0.00000000	      0.00000000	      0.00000000	      0.00000000	      0.00000000	      0.00000000	      0.00000000	      0.00000000	      0.00000000	     91.28722523	    253.76386832	     -5.93774658	      1.78061309	      0.00000000	      0.20909509	      0.00000000	     -0.13605358	     -0.00000000
